<?xml version="1.0" encoding="utf-8"?>
<!-- Generator: Adobe Illustrator 27.9.0, SVG Export Plug-In . SVG Version: 6.00 Build 0)  -->
<svg version="1.1" id="图层_1" xmlns="http://www.w3.org/2000/svg" xmlns:xlink="http://www.w3.org/1999/xlink" x="0px" y="0px"
	 viewBox="0 0 512 512" style="enable-background:new 0 0 512 512;" xml:space="preserve">
<style type="text/css">
	.st0{fill:#FFFFFF;}
</style>
<g>
	<path d="M279.8,394.51c10.88-1.82,21.3-5.09,31.47-9.17c9.14-3.67,17.75-8.42,25.79-14.17c8.15-5.82,15.86-12.11,22.56-19.63
		c7.44-8.36,13.58-17.57,18.67-27.49c3.68-7.19,7.32-14.43,9.65-22.19c1.95-6.5,3.63-13.09,5.27-19.68c0.71-2.86,1.22-5.8,1.5-8.74
		c1.06-11.01,1.43-22.03-0.1-33.04c-0.13-0.9-0.02-1.84-0.02-2.7c2.04-0.3,3.99-0.23,5.62-0.9c3.26-1.34,6.32-3.2,8.66-5.89
		c8.17-9.43,8.43-24.03-1.2-33.47c-1.37-1.34-2.91-2.5-4.27-3.84c-1.6-1.58-3.46-2.61-5.68-2.82c-2.7-0.26-5.42-0.29-8.13-0.53
		c-3.1-0.28-6.2-0.58-9.28-1.04c-2.03-0.3-3.32-1.59-4.17-3.54c-1.02-2.34-2.16-4.65-3.56-6.78c-5.19-7.92-11.21-15.18-18.13-21.64
		c-3.56-3.32-7.44-6.29-11.18-9.4c-1.51-1.25-3.05-2.46-4.6-3.71c0.31-0.57,0.49-0.92,0.68-1.27c2-3.57,3.73-7.21,4.32-11.35
		c0.94-6.6-0.01-12.9-3.65-18.42c-6.27-9.49-15.47-12.93-26.56-11.67c-2.04,0.23-4.18,0.64-6.02,1.5
		c-7.82,3.67-13.8,9.16-16.49,17.67c-0.11,0.35-0.37,0.65-0.45,0.79c-6.29-1.01-12.34-2.12-18.44-2.92
		c-8.2-1.08-16.45-0.9-24.69-0.57c-3.91,0.16-7.85,0.31-11.71,0.91c-8.46,1.3-16.76,3.21-24.89,6.07
		c-6.52,2.3-12.78,5.11-18.86,8.28c-8.6,4.48-16.37,10.26-23.83,16.44c-10.09,8.36-19.17,17.66-26.23,28.74
		c-3.21,5.05-6.05,10.35-8.85,15.64c-1.63,3.09-2.85,6.4-4.36,9.86c-2.44,0-4.76-0.05-7.08,0.01c-3.95,0.1-7.93,0.48-11.41,2.39
		c-8.05,4.41-13.11,11.04-14.1,20.42c-0.22,2.06-0.42,4.13-2.24,5.6c-0.46,0.38-0.81,1.03-0.98,1.62c-0.55,2-1.17,4.01-1.44,6.05
		c-0.46,3.57-0.76,7.16-0.99,10.75c-1.17,18.39,0.99,36.42,6.17,54.08c3.79,12.94,9.09,25.24,15.94,36.89
		c6.07,10.32,13.19,19.81,21.44,28.47c0.48,0.5,1.13,0.84,1.71,1.23c0.73,0.49,1.48,0.96,2.3,1.49c1-0.31,2.17-0.59,3.26-1.06
		c0.52-0.22,1.03-0.74,1.28-1.25c0.39-0.8,0.46-1.67-0.28-2.44c-0.1-0.1-0.19-0.19-0.27-0.27c-0.08-0.07-0.15-0.13-0.22-0.19
		c-0.51-0.39-0.99-0.42-2.18-0.21c-0.14-0.6-0.2-1.25-0.32-1.85c-0.04-0.2-0.09-0.4-0.15-0.59c-0.08-0.25-0.19-0.49-0.33-0.7
		c-1.09-1.66-2.49-3.12-3.79-4.63c-6.86-7.95-13.08-16.34-18.14-25.57c-2.92-5.33-5.58-10.77-7.98-16.36
		c-2.97-6.92-5.6-13.91-7.47-21.23c-2.45-9.57-3.83-19.29-4.65-29.11c-0.76-9.03-0.01-18.06,0.33-27.09c0-0.09,0.22-0.17,0.42-0.32
		c0.33,0.43,0.69,0.84,0.99,1.3c3.81,5.82,8.93,9.95,15.58,12.09c1.06,0.34,1.26,0.98,1.29,1.97c0.13,4.08,0.25,8.16,0.53,12.23
		c0.81,11.89,3.27,23.44,7.46,34.59c2.9,7.71,6.18,15.24,10.21,22.46c5.48,9.83,11.91,18.98,19.53,27.2
		c7.84,8.45,16.64,15.87,26.28,22.26c9.23,6.13,19,11.25,29.46,14.86c10.83,3.74,21.96,6.31,33.46,7.12
		C254.85,396.93,267.33,396.6,279.8,394.51z M388.27,195.5c0.95-0.13,1.91-0.14,2.34-0.17c11.68,0.19,20.88,8.14,20.74,20.91
		c-0.04,3.88-1.7,7.33-4.44,10.07c-2.12,2.12-4.29,4.27-7.55,4.76c-2.1,0.31-3.96-0.3-5.82-0.98c-0.44-0.16-0.82-0.95-0.91-1.5
		c-1.04-6.31-2.8-12.44-4.76-18.52c-0.85-2.65-1.77-5.29-2.62-7.94c-0.22-0.68-0.36-1.39-0.45-2.1
		C384.5,197.55,385.81,195.84,388.27,195.5z M343.73,235.73c9.07-3.6,18-3.41,26.12,2.74c2.1,1.59,3.73,3.69,4.84,6.16
		c0.52,1.15,1.27,2.21,1.98,3.27c1.1,1.64,1.76,3.43,1.76,5.4c0.04,11.92,0.05,23.84,0.06,35.75c0,0.39-0.12,0.77-0.24,1.46
		c-1.78,0.23-3.57,0.55-5.38,0.66c-1.43,0.09-2.89,0.02-4.31-0.18c-1.16-0.17-2.38-0.44-3.37-1.02c-1.64-0.96-3.27-1.18-5.06-0.71
		c-1.86,0.48-3.7,1.06-5.58,1.38c-7.36,1.25-14.66,1.18-21.73-1.58c-4.42-1.73-7.71-4.81-8.86-9.43c-1.6-6.44,0.1-12.08,5.85-16.27
		c3.15-2.3,6.8-3.45,10.48-4.58c2.71-0.83,5.45-1.15,8.27-1.14c4.08,0.01,8.16-0.03,12.24-0.09c1.09-0.02,2.18-0.2,3.19-0.3
		c0.85-3.65-0.18-6.68-3.13-8.54c-1.45-0.91-3.17-1.67-4.85-1.89c-5.68-0.75-10.93,0.6-15.71,3.82c-2.85,1.92-5.76,3.74-8.67,5.56
		c-1.25,0.78-2.54,0.9-3.8-0.05c-1.38-1.04-2-2.67-1.51-4.21c0.19-0.6,0.44-1.23,0.81-1.73
		C331.61,244.15,336.6,238.56,343.73,235.73z M264.86,235.13c1.96-0.91,4-1.56,6.26-1.21c1.17,0.18,2.39,0.06,3.59,0.06
		c1.46,0.01,2.68,0.5,3.42,1.82c0.71,1.25,1.44,2.49,2.03,3.79c4.52,9.97,9,19.97,13.5,29.94c0.12,0.27,0.38,0.47,0.9,1.09
		c1.01-1.93,1.94-3.5,2.68-5.15c4.04-8.96,7.97-17.97,12.06-26.91c2.08-4.54,2.19-4.49,7.28-4.52c2.56-0.02,5.12-0.06,7.68-0.06
		c0.86,0,1.72,0.1,3,0.19c-0.74,1.79-1.3,3.32-1.98,4.79c-2.94,6.39-5.92,12.76-8.88,19.14c-4,8.62-7.98,17.26-12,25.88
		c-0.87,1.88-1.8,3.73-2.81,5.54c-0.26,0.47-0.89,1.02-1.37,1.04c-3.58,0.15-7.14,0.94-10.75,0.14c-1.19-0.27-2.07-0.71-2.63-1.81
		c-2.31-4.55-4.68-9.08-6.97-13.64c-3.11-6.22-6.19-12.45-9.25-18.69c-2.61-5.31-5.23-10.61-7.75-15.97
		C261.62,237.93,262.23,236.35,264.86,235.13z M189.34,291.38c-2.53-1.08-4.66-2.73-6.68-4.57c-7.48-6.79-13.99-14.48-20.67-22.01
		c-2.7-3.05-5.27-6.21-7.9-9.32c-0.41-0.48-0.84-0.94-1.25-1.41c-0.17,0.04-0.34,0.08-0.5,0.12c-0.05,0.68-0.13,1.36-0.13,2.04
		c-0.01,9.04-0.01,18.08-0.02,27.12c0,0.48,0.01,0.96,0,1.44c-0.07,3.83-1.23,5.39-4.98,6.2c-2.44,0.53-4.93,0.41-7.34-0.36
		c-2.16-0.69-3.33-2.1-3.22-4.45c0.04-0.8,0-1.6,0.01-2.4c0.03-15.2,0.06-30.4,0.1-45.6c0-1.2,0.12-2.39,0.21-3.59
		c0.26-3.23,3.71-5.88,6.78-5.97c3.88-0.1,6.91,1.13,9.54,4.01c5.17,5.67,10.66,11.04,15.74,16.79c3.8,4.3,7.17,8.99,10.73,13.5
		c0.98,1.24,1.95,2.48,3,3.82c0.95-0.91,0.65-1.83,0.65-2.63c0-8.64-0.08-17.28-0.04-25.92c0.02-4.47-0.59-4.19,4.29-4.36
		c2.16-0.08,4.32-0.16,6.48-0.14c3.34,0.03,4.53,1.15,4.56,4.47c0.07,7.92,0.05,15.84,0.07,23.76c0.02,7.76,0.08,15.52,0.06,23.28
		C198.8,290.46,194.17,293.44,189.34,291.38z M233.94,291.02c-5.59,0.38-10.59-0.33-15.38-2.46c-6.14-2.73-10.29-7.41-13.26-13.28
		c-0.4-0.78-0.69-1.61-1.07-2.41c-2.97-6.2-2.93-12.51-0.61-18.86c0.57-1.55,1.44-3.04,2.39-4.41c4.44-6.39,10.14-11.27,17.56-13.82
		c5.97-2.05,12.14-2.05,18.2-0.5c7.27,1.86,13.19,6.11,17.84,11.88c2.95,3.66,4.95,8.01,6.32,12.56c0.54,1.79,0.48,3.67-0.3,5.4
		c-0.88,1.96-1.9,3.85-2.82,5.79c-0.51,1.08-1.03,2.17-1.42,3.3c-2.08,6.01-6.35,9.98-11.72,13.05
		C244.64,290.14,239.25,291.21,233.94,291.02z"/>
	<path d="M419.98,243.37c-0.2-3.26-1.6-4.64-4.81-4.71c-1.47-0.03-2.08,0.45-2.1,1.95c-0.03,1.68,0.05,3.36,0.21,5.03
		c0.79,8.31,0.58,16.63,0.06,24.93c-0.46,7.34-1.65,14.61-3.31,21.79c-2.24,9.75-5.07,19.3-9.08,28.49
		c-2.72,6.24-6.03,12.14-9.32,18.08c-3.81,6.89-8.41,13.22-13.34,19.28c-5.73,7.05-11.86,13.77-18.91,19.57
		c-2.82,2.33-5.64,4.68-8.6,6.81c-4.22,3.02-8.52,5.93-12.89,8.75c-8.5,5.47-17.49,9.97-27.04,13.31
		c-8.74,3.06-17.45,6.27-26.73,7.37c-5.23,0.62-10.23,2.5-15.52,2.76c-2.86,0.14-5.74,0.3-8.6,0.21
		c-5.51-0.18-11.01-0.54-16.52-0.79c-2.28-0.11-4.17,0.78-5.83,2.47c0.27,0.53,0.62,0.99,0.76,1.5c0.36,1.28,1.19,1.78,2.39,2.34
		c1.81,0.85,3.42,1.85,5.56,1.49c0.54-0.09,1.19,0.39,1.77,0.67c2.74,1.31,5.66,0.89,8.5,0.77c1.1-0.05,2.27-0.68,3.21-1.33
		c2.1-1.44,4.46-1.81,6.77-1.29c2.97,0.67,5.85,1.54,8.92,0.58c0.59-0.19,1.27-0.08,1.91-0.14c1.83-0.16,3.66-0.3,5.48-0.52
		c1.42-0.17,2.82-0.48,4.23-0.69c3.46-0.51,6.94-0.92,10.38-1.51c1.23-0.21,2.52-0.65,3.55-1.34c1.2-0.81,2.41-1.07,3.79-1.24
		c1.47-0.18,3.08-0.43,4.29-1.2c1.06-0.67,2.02-1.17,3.25-1.22c2.27-0.09,4.16-1.26,5.72-2.67c1.49-1.34,3.07-1.83,4.93-1.98
		c0.93-0.07,1.94-0.12,2.76-0.51c2.59-1.23,5.06-2.73,7.67-3.93c6.2-2.86,11.82-6.68,17.43-10.49c5.02-3.4,9.84-7.07,14.43-11.09
		c6.64-5.81,12.75-12.08,18.35-18.89c7.14-8.68,13.03-18.14,18.48-27.95c4.41-7.94,7.55-16.39,10.85-24.79
		c1.43-3.62,2.52-7.42,3.32-11.24c1.38-6.65,2.86-13.32,3.49-20.06c0.77-8.27,0.87-16.61,0.96-24.92
		C420.83,252.46,420.25,247.91,419.98,243.37z"/>
	<path d="M128.73,173.22c2.63-3.89,5.44-7.68,8.38-11.35c4.75-5.93,10.09-11.33,15.69-16.47c4.94-4.54,9.87-9.1,15.51-12.79
		c4.14-2.71,8.32-5.37,12.54-7.96c6.76-4.15,13.96-7.42,21.36-10.22c4.86-1.83,9.8-3.45,14.7-5.18c0.87-0.31,1.7-0.69,2.95-1.21
		c-1.37-1.27-2.42-2.2-3.43-3.19c-0.8-0.79-1.68-0.86-2.63-0.41c-1.08,0.51-2.1,1.16-3.22,1.58c-3.81,1.44-7.61,2.93-11.48,4.17
		c-6.9,2.22-13.32,5.51-19.51,9.12c-9.72,5.69-19.05,11.98-27.38,19.67c-5.16,4.77-10.26,9.56-14.85,14.9
		c-5.74,6.68-11.15,13.59-16,20.93c-0.98,1.49-1.88,3.04-2.82,4.56c0.15,0.13,0.3,0.27,0.45,0.4
		C122.83,178.54,126.3,176.82,128.73,173.22z"/>
	<path class="st0" d="M198.68,238.18c-0.03-3.33-1.22-4.44-4.56-4.47c-2.16-0.02-4.32,0.07-6.48,0.14c-4.89,0.17-4.28-0.1-4.29,4.36
		c-0.03,8.64,0.05,17.28,0.04,25.92c0,0.79,0.3,1.71-0.65,2.63c-1.05-1.34-2.03-2.58-3-3.82c-3.56-4.52-6.93-9.2-10.73-13.5
		c-5.08-5.74-10.57-11.12-15.74-16.79c-2.63-2.88-5.66-4.12-9.54-4.01c-3.07,0.08-6.53,2.73-6.78,5.97
		c-0.09,1.19-0.21,2.39-0.21,3.59c-0.04,15.2-0.07,30.4-0.1,45.6c0,0.8,0.03,1.6-0.01,2.4c-0.11,2.35,1.06,3.76,3.22,4.45
		c2.41,0.77,4.9,0.89,7.34,0.36c3.75-0.81,4.91-2.38,4.98-6.2c0.01-0.48,0-0.96,0-1.44c0-9.04,0.01-18.08,0.02-27.12
		c0-0.68,0.09-1.36,0.13-2.04c0.17-0.04,0.34-0.08,0.5-0.12c0.42,0.47,0.85,0.93,1.25,1.41c2.63,3.11,5.2,6.27,7.9,9.32
		c6.68,7.53,13.19,15.22,20.67,22.01c2.02,1.84,4.15,3.49,6.68,4.57c4.83,2.06,9.46-0.91,9.47-6.16c0.02-7.76-0.04-15.52-0.06-23.28
		C198.72,254.02,198.75,246.1,198.68,238.18z"/>
	<path class="st0" d="M326.34,251.93c-0.49,1.54,0.13,3.17,1.51,4.21c1.26,0.95,2.55,0.83,3.8,0.05c2.91-1.83,5.82-3.65,8.67-5.56
		c4.78-3.21,10.03-4.57,15.71-3.82c1.68,0.22,3.4,0.98,4.85,1.89c2.95,1.86,3.99,4.89,3.13,8.54c-1.01,0.1-2.1,0.29-3.19,0.3
		c-4.08,0.06-8.16,0.1-12.24,0.09c-2.82-0.01-5.56,0.31-8.27,1.14c-3.68,1.13-7.33,2.29-10.48,4.58c-5.75,4.19-7.45,9.83-5.85,16.27
		c1.15,4.62,4.44,7.7,8.86,9.43c7.07,2.76,14.36,2.83,21.73,1.58c1.88-0.32,3.73-0.89,5.58-1.38c1.79-0.47,3.42-0.25,5.06,0.71
		c0.99,0.58,2.22,0.85,3.37,1.02c1.42,0.2,2.88,0.27,4.31,0.18c1.81-0.11,3.6-0.43,5.38-0.66c0.12-0.68,0.24-1.07,0.24-1.46
		c-0.01-11.92-0.02-23.84-0.06-35.75c-0.01-1.96-0.66-3.76-1.76-5.4c-0.71-1.06-1.46-2.12-1.98-3.27c-1.12-2.46-2.74-4.57-4.84-6.16
		c-8.12-6.15-17.06-6.34-26.12-2.74c-7.13,2.83-12.13,8.43-16.59,14.47C326.77,250.7,326.53,251.32,326.34,251.93z M359.2,278.47
		c-4.94,1.55-10.04,1.75-15.13,0.8c-2.3-0.43-3.67-2.18-3.8-4.33c-0.13-2.25,0.88-4.08,3.15-4.79c2.03-0.63,4.18-0.95,6.31-1.16
		c1.89-0.19,3.82-0.04,5.73-0.04c0,0.02,0,0.04,0,0.06c2.31,0,4.62-0.06,6.93,0.02c1.67,0.05,1.84,0.3,1.99,2
		C364.72,274.78,363.2,277.21,359.2,278.47z"/>
	<path class="st0" d="M261.39,274.23c0.39-1.13,0.91-2.22,1.42-3.3c0.92-1.94,1.94-3.84,2.82-5.79c0.78-1.74,0.84-3.62,0.3-5.4
		c-1.37-4.55-3.37-8.9-6.32-12.56c-4.65-5.77-10.56-10.01-17.84-11.88c-6.06-1.55-12.23-1.55-18.2,0.5
		c-7.42,2.55-13.12,7.43-17.56,13.82c-0.95,1.37-1.82,2.85-2.39,4.41c-2.32,6.34-2.36,12.66,0.61,18.86
		c0.38,0.79,0.68,1.62,1.07,2.41c2.97,5.87,7.12,10.55,13.26,13.28c4.79,2.13,9.79,2.84,15.38,2.46c5.3,0.2,10.69-0.88,15.72-3.74
		C255.04,284.2,259.31,280.23,261.39,274.23z M240.07,278.42c-0.54,0.32-1.12,0.7-1.72,0.79c-8.47,1.25-15.89-1.44-18.35-11.04
		c-0.81-3.16-1.07-6.28-0.41-9.47c0.72-3.45,2.39-6.38,4.91-8.85c0.51-0.5,1.02-1.04,1.38-1.64c1.15-1.96,2.94-2.78,5.08-3.19
		c7.81-1.51,13.93,3.6,16.55,10.05c1.01,2.47,1.53,5.04,1.32,7.44C249.05,269.76,245.96,274.88,240.07,278.42z"/>
	<path class="st0" d="M270.62,256.55c3.07,6.24,6.14,12.48,9.25,18.69c2.29,4.57,4.66,9.09,6.97,13.64c0.56,1.1,1.43,1.54,2.63,1.81
		c3.61,0.81,7.17,0.01,10.75-0.14c0.48-0.02,1.11-0.57,1.37-1.04c1.01-1.81,1.94-3.66,2.81-5.54c4.02-8.62,8-17.25,12-25.88
		c2.96-6.38,5.94-12.75,8.88-19.14c0.68-1.48,1.25-3.01,1.98-4.79c-1.28-0.08-2.14-0.18-3-0.19c-2.56,0-5.12,0.04-7.68,0.06
		c-5.08,0.04-5.2-0.02-7.28,4.52c-4.09,8.94-8.02,17.95-12.06,26.91c-0.74,1.65-1.67,3.22-2.68,5.15c-0.52-0.62-0.78-0.82-0.9-1.09
		c-4.5-9.98-8.99-19.97-13.5-29.94c-0.59-1.3-1.32-2.55-2.03-3.79c-0.75-1.31-1.96-1.81-3.42-1.82c-1.2-0.01-2.42,0.12-3.59-0.06
		c-2.26-0.34-4.3,0.3-6.26,1.21c-2.63,1.22-3.24,2.81-1.99,5.46C265.39,245.94,268.01,251.24,270.62,256.55z"/>
	<path class="st0" d="M385.24,202.13c0.85,2.65,1.77,5.29,2.62,7.94c1.96,6.08,3.72,12.2,4.76,18.52c0.09,0.55,0.47,1.34,0.91,1.5
		c1.86,0.68,3.72,1.29,5.82,0.98c3.27-0.49,5.43-2.64,7.55-4.76c2.73-2.73,4.39-6.19,4.44-10.07c0.14-12.77-9.06-20.72-20.74-20.91
		c-0.43,0.03-1.39,0.04-2.34,0.17c-2.46,0.34-3.77,2.04-3.47,4.52C384.88,200.73,385.03,201.45,385.24,202.13z"/>
	<path d="M362.39,269.04c-2.31-0.07-4.62-0.02-6.93-0.02c0-0.02,0-0.04,0-0.06c-1.91,0-3.84-0.15-5.73,0.04
		c-2.12,0.21-4.28,0.52-6.31,1.16c-2.27,0.71-3.28,2.54-3.15,4.79c0.13,2.14,1.5,3.9,3.8,4.33c5.09,0.95,10.19,0.75,15.13-0.8
		c4-1.26,5.52-3.69,5.19-7.43C364.23,269.34,364.06,269.09,362.39,269.04z"/>
	<path d="M247.51,255.07c-2.62-6.45-8.74-11.56-16.55-10.05c-2.14,0.41-3.93,1.24-5.08,3.19c-0.36,0.61-0.87,1.15-1.38,1.64
		c-2.52,2.47-4.19,5.4-4.91,8.85c-0.66,3.19-0.4,6.31,0.41,9.47c2.47,9.6,9.88,12.29,18.35,11.04c0.6-0.09,1.18-0.46,1.72-0.79
		c5.89-3.54,8.98-8.66,8.75-15.92C249.04,260.1,248.51,257.54,247.51,255.07z"/>
</g>
</svg>
